<svg width="163" height="163" viewBox="0 0 163 163" fill="none" xmlns="http://www.w3.org/2000/svg">
<path d="M86.3017 120.844C91.9184 126.461 97.0869 129.042 101.875 129.042C104.442 129.042 106.493 128.587 110.276 127.167L112.939 126.135C120.07 123.269 123.669 122.25 129.042 122.25C137.287 122.25 145.199 125.951 152.717 132.981L154.218 134.427L144.615 144.031C138.998 138.414 133.83 135.833 129.042 135.833C126.474 135.833 124.423 136.288 120.64 137.708L117.978 138.74C110.847 141.599 107.247 142.625 101.875 142.625C93.6299 142.625 85.7176 138.924 78.1993 131.894L76.6983 130.448L86.3017 120.844ZM61.125 20.375C61.125 25.7788 63.2716 30.9612 67.0927 34.7823C70.9138 38.6034 76.0962 40.75 81.5 40.75C86.9038 40.75 92.0863 38.6034 95.9073 34.7823C99.7284 30.9612 101.875 25.7788 101.875 20.375H142.625C144.426 20.375 146.154 21.0905 147.427 22.3642C148.701 23.6379 149.417 25.3654 149.417 27.1667V74.7083C149.417 76.5096 148.701 78.2371 147.427 79.5108C146.154 80.7845 144.426 81.5 142.625 81.5H115.445V67.9167L135.833 67.9099V33.9515H112.626L112.511 34.23C109.935 39.9883 105.807 44.9158 100.589 48.4605C95.3711 52.0051 89.2692 54.0269 82.967 54.2994L81.5 54.3333C74.942 54.3339 68.524 52.4359 63.0211 48.8686C57.5182 45.3012 53.1657 40.217 50.4893 34.23L50.367 33.9583H27.1667V67.9167L47.5349 67.9099V129.042H67.9167V142.625H40.75C38.9487 142.625 37.2213 141.909 35.9476 140.636C34.6739 139.362 33.9583 137.635 33.9583 135.833L33.9515 81.4932L20.375 81.5C18.5737 81.5 16.8463 80.7845 15.5726 79.5108C14.2989 78.2371 13.5833 76.5096 13.5833 74.7083V27.1667C13.5833 25.3654 14.2989 23.6379 15.5726 22.3642C16.8463 21.0905 18.5737 20.375 20.375 20.375H61.125ZM86.3017 93.6775C91.9184 99.2942 97.0869 101.875 101.875 101.875C104.442 101.875 106.493 101.42 110.276 100.001L112.939 98.9682C120.07 96.1021 123.669 95.0833 129.042 95.0833C137.287 95.0833 145.199 98.7848 152.717 105.814L154.218 107.261L144.615 116.864C138.998 111.248 133.83 108.667 129.042 108.667C126.474 108.667 124.423 109.122 120.64 110.541L117.978 111.574C110.847 114.433 107.247 115.458 101.875 115.458C93.6299 115.458 85.7176 111.757 78.1993 104.728L76.6983 103.281L86.3017 93.6775Z" fill="#56CCF2"/>
</svg>
