<svg width="18" height="20" viewBox="0 0 18 20" fill="none" xmlns="http://www.w3.org/2000/svg">
<path d="M8.75 0C5.98858 0 3.75 2.23857 3.75 5C3.75 7.76143 5.98858 10 8.75 10C11.5114 10 13.75 7.76143 13.75 5C13.75 2.23857 11.5114 0 8.75 0ZM5 5C5 2.92894 6.67894 1.25 8.75 1.25C10.8211 1.25 12.5 2.92894 12.5 5C12.5 7.07106 10.8211 8.75 8.75 8.75C6.67894 8.75 5 7.07106 5 5Z" fill="black"/>
<path d="M2.51091 11.25C1.12894 11.25 0 12.3586 0 13.75C0 15.864 1.04101 17.4579 2.66874 18.4957C4.27121 19.5175 6.43157 20 8.75 20C11.0684 20 13.2287 19.5175 14.8312 18.4957C16.459 17.4579 17.5 15.864 17.5 13.75C17.5 12.3695 16.3806 11.25 15 11.25H2.51091ZM1.25 13.75C1.25 13.0584 1.80982 12.5 2.51091 12.5H15C15.6902 12.5 16.25 13.0597 16.25 13.75C16.25 15.386 15.4721 16.6046 14.1592 17.4417C12.821 18.295 10.9189 18.75 8.75 18.75C6.58111 18.75 4.67897 18.295 3.34077 17.4417C2.02782 16.6046 1.25 15.386 1.25 13.75Z" fill="black"/>
</svg>
